<svg xmlns="http://www.w3.org/2000/svg" width="1240" height="760" viewBox="0 0 1240 760" role="img" aria-labelledby="title desc">
  <title id="title">WhiteTree</title>
  <desc id="desc">A hollow white line-art study of the White Tree of Gondor with a thick tapering trunk, two heavy primary limbs, curling sub-branches, and ornamental roots.</desc>
  <defs>
    <style><![CDATA[
      .tree-art { fill:none;stroke:#f3f7fa;stroke-linecap:round;stroke-linejoin:round; }
      .hollow-major { fill:#11151d;stroke:#f3f7fa;stroke-width:4.2; }
      .hollow-primary { fill:#11151d;stroke:#f3f7fa;stroke-width:4; }
      .hollow-secondary { fill:#11151d;stroke:#f3f7fa;stroke-width:3.6; }
      .twig { fill:none;stroke:#f3f7fa;stroke-width:3; }
      .root { fill:none;stroke:#f3f7fa;stroke-width:3.6; }
    ]]></style>
  </defs>
  <rect width="1240" height="760" rx="18" fill="#11151d"/>
  <rect x="10" y="10" width="1220" height="740" rx="14" fill="none" stroke="#2b3442" stroke-width="2"/>
  
  <!-- Hollow White Tree of Gondor study -->
  <g class="tree-art">
    <!-- thick hollow trunk, broad at the base and tapering upward -->
    <path class="hollow-major" d="
      M594 610
      C600 565 603 520 603 474
      C603 425 600 382 603 340
      C605 305 607 277 605 247
      C603 220 599 198 595 180
      C605 188 614 200 620 215
      C626 200 635 188 645 180
      C641 198 637 220 635 247
      C633 277 635 305 637 340
      C640 382 637 425 637 474
      C637 520 640 565 646 610
      C638 601 629 596 620 596
      C611 596 602 601 594 610 Z"/>

    <!-- two thick primary limbs -->
    <path class="hollow-primary" d="
      M608 418
      C574 414 546 402 521 384
      C494 365 475 342 468 319
      C463 301 468 286 481 280
      C493 274 506 280 511 291
      C517 303 511 316 500 320
      C488 324 479 316 480 306
      C486 323 500 340 520 352
      C544 367 571 375 608 378 Z"/>
    <path class="hollow-primary" d="
      M632 418
      C666 414 694 402 719 384
      C746 365 765 342 772 319
      C777 301 772 286 759 280
      C747 274 734 280 729 291
      C723 303 729 316 740 320
      C752 324 761 316 760 306
      C754 323 740 340 720 352
      C696 367 669 375 632 378 Z"/>

    <!-- second heavy pair -->
    <path class="hollow-secondary" d="
      M607 365
      C576 357 552 341 535 319
      C518 297 513 274 522 257
      C529 244 542 239 553 245
      C563 251 565 263 559 272
      C552 282 540 282 533 274
      C536 292 552 310 575 320
      C586 325 596 328 608 330 Z"/>
    <path class="hollow-secondary" d="
      M633 365
      C664 357 688 341 705 319
      C722 297 727 274 718 257
      C711 244 698 239 687 245
      C677 251 675 263 681 272
      C688 282 700 282 707 274
      C704 292 688 310 665 320
      C654 325 644 328 632 330 Z"/>

    <!-- upper fork -->
    <path class="hollow-secondary" d="
      M611 325
      C590 309 579 286 579 261
      C579 239 587 219 601 204
      C609 195 615 185 620 172
      C621 194 616 213 607 228
      C598 243 594 260 598 276
      C602 292 608 302 615 311 Z"/>
    <path class="hollow-secondary" d="
      M629 325
      C650 309 661 286 661 261
      C661 239 653 219 639 204
      C631 195 625 185 620 172
      C619 194 624 213 633 228
      C642 243 646 260 642 276
      C638 292 632 302 625 311 Z"/>

    <!-- thin curling outer branches -->
    <path class="twig" d="M523 319 C497 316 475 304 463 287 C452 271 452 253 462 245 C473 236 488 242 491 254 C494 266 485 276 473 274"/>
    <path class="twig" d="M717 319 C743 316 765 304 777 287 C788 271 788 253 778 245 C767 236 752 242 749 254 C746 266 755 276 767 274"/>

    <path class="twig" d="M535 319 C508 306 488 286 482 264 C477 247 482 231 495 226 C507 221 520 229 521 241 C522 252 514 260 504 260"/>
    <path class="twig" d="M705 319 C732 306 752 286 758 264 C763 247 758 231 745 226 C733 221 720 229 719 241 C718 252 726 260 736 260"/>

    <path class="twig" d="M579 261 C560 251 546 236 543 219 C540 204 546 192 557 189 C568 186 578 194 578 204 C578 214 570 221 561 219"/>
    <path class="twig" d="M661 261 C680 251 694 236 697 219 C700 204 694 192 683 189 C672 186 662 194 662 204 C662 214 670 221 679 219"/>

    <path class="twig" d="M601 204 C592 190 590 175 594 162 C597 151 605 143 613 143 C621 144 625 152 622 160"/>
    <path class="twig" d="M639 204 C648 190 650 175 646 162 C643 151 635 143 627 143 C619 144 615 152 618 160"/>

    <!-- small forks matching the reference's sharp branch tips -->
    <path class="twig" d="M482 264 C466 259 454 248 451 235 C449 224 455 215 464 214 C473 213 480 221 477 230"/>
    <path class="twig" d="M758 264 C774 259 786 248 789 235 C791 224 785 215 776 214 C767 213 760 221 763 230"/>

    <path class="twig" d="M463 287 C445 286 430 278 423 266 C416 254 419 243 428 239 C438 235 447 241 449 250"/>
    <path class="twig" d="M777 287 C795 286 810 278 817 266 C824 254 821 243 812 239 C802 235 793 241 791 250"/>

    <path class="twig" d="M500 320 C481 329 463 332 449 325 C437 319 433 307 440 298 C448 288 462 290 468 300"/>
    <path class="twig" d="M740 320 C759 329 777 332 791 325 C803 319 807 307 800 298 C792 288 778 290 772 300"/>

    <!-- exact-style hollow ornamental roots -->
    <path class="root" d="M604 598 C582 603 558 614 540 629 C525 642 525 658 538 665 C551 671 565 662 564 649 C563 637 549 632 539 640"/>
    <path class="root" d="M636 598 C658 603 682 614 700 629 C715 642 715 658 702 665 C689 671 675 662 676 649 C677 637 691 632 701 640"/>

    <path class="root" d="M600 606 C574 619 555 636 552 654 C550 668 562 677 575 672 C587 667 591 654 581 647 C572 640 562 646 558 654"/>
    <path class="root" d="M640 606 C666 619 685 636 688 654 C690 668 678 677 665 672 C653 667 649 654 659 647 C668 640 678 646 682 654"/>

    <path class="root" d="M597 614 C583 631 581 649 591 662 C600 673 614 670 615 657 C615 646 606 641 598 648"/>
    <path class="root" d="M643 614 C657 631 659 649 649 662 C640 673 626 670 625 657 C625 646 634 641 642 648"/>

    <path class="root" d="M586 632 C561 639 539 650 525 665 C517 673 521 682 532 682 C542 682 549 675 547 667"/>
    <path class="root" d="M654 632 C679 639 701 650 715 665 C723 673 719 682 708 682 C698 682 691 675 693 667"/>

    <!-- small inner root curls -->
    <path class="twig" d="M608 612 C602 626 604 638 613 643 C621 648 628 643 627 635 C626 628 620 625 615 629"/>
    <path class="twig" d="M632 612 C638 626 636 638 627 643 C619 648 612 643 613 635 C614 628 620 625 625 629"/>
  </g>
</svg>