<svg xmlns="http://www.w3.org/2000/svg" width="1240" height="760" viewBox="0 0 1240 760" role="img" aria-labelledby="title desc">
  <title id="title">WhiteTree Activity Core</title>
  <desc id="desc">A White Tree of Gondor-inspired GitHub activity visualization. The heraldic white tree occupies the center, seven star rosettes surround its crown, four stars display contribution statistics, subtle buds mark active contribution days, and an animated orb travels to the latest active day.</desc>
  <defs>
    <style><![CDATA[
      .mono { font-family: "DejaVu Sans Mono", "Liberation Mono", Consolas, monospace; }
      .title { font-size: 30px; font-weight: 800; letter-spacing: 1.5px; }
      .sub { font-size: 12px; letter-spacing: 1.6px; }
      .tree { fill: none; stroke: #f3f7fa; stroke-width: 4.1; stroke-linecap: round; stroke-linejoin: round; }
      .activity-twig { fill: none; stroke: #aeb9c7; stroke-width: 1.15; stroke-linecap: round; opacity: .72; }
      .bud1 { fill: #53677b; } .bud2 { fill: #7393a5; } .bud3 { fill: #91bdc5; }
      .bud4 { fill: #b8e1d1; } .bud5 { fill: #f3f7fa; }
      .star-label { fill: #aeb9c7; font-size: 9px; font-weight: 800; letter-spacing: .8px; }
      .star-value { fill: #f3f7fa; font-size: 19px; font-weight: 900; }
      .star-detail { fill: #8996a7; font-size: 8px; font-weight: 700; }
      .root-label { fill: #7d8998; font-size: 10px; font-weight: 800; letter-spacing: 1.4px; }
    ]]></style>
    <filter id="glow" x="-220%" y="-220%" width="440%" height="440%">
      <feGaussianBlur stdDeviation="4.2" result="blur"/>
      <feMerge><feMergeNode in="blur"/><feMergeNode in="SourceGraphic"/></feMerge>
    </filter>
  </defs>

  <rect width="1240" height="760" rx="18" fill="#11151d"/>
  <rect x="10" y="10" width="1220" height="740" rx="14" fill="none" stroke="#2b3442" stroke-width="2"/>

  <text x="40" y="50" class="mono title" fill="#f1f5f9">WHITETREE // ACTIVITY CORE</text>
  <text x="42" y="75" class="mono sub" fill="#718096">WHITE TREE → ACTIVITY   STARS → STATS   ORB → LATEST CONTRIBUTION</text>

  <!-- seven heraldic star rosettes -->
  <g><g><circle cx="620.0" cy="72.0" r="4.6" fill="none" stroke="#f3f7fa" stroke-width="2"/><circle cx="640.8" cy="76.8" r="4.6" fill="none" stroke="#f3f7fa" stroke-width="2"/><circle cx="657.5" cy="90.1" r="4.6" fill="none" stroke="#f3f7fa" stroke-width="2"/><circle cx="666.8" cy="109.3" r="4.6" fill="none" stroke="#f3f7fa" stroke-width="2"/><circle cx="666.8" cy="130.7" r="4.6" fill="none" stroke="#f3f7fa" stroke-width="2"/><circle cx="657.5" cy="149.9" r="4.6" fill="none" stroke="#f3f7fa" stroke-width="2"/><circle cx="640.8" cy="163.2" r="4.6" fill="none" stroke="#f3f7fa" stroke-width="2"/><circle cx="620.0" cy="168.0" r="4.6" fill="none" stroke="#f3f7fa" stroke-width="2"/><circle cx="599.2" cy="163.2" r="4.6" fill="none" stroke="#f3f7fa" stroke-width="2"/><circle cx="582.5" cy="149.9" r="4.6" fill="none" stroke="#f3f7fa" stroke-width="2"/><circle cx="573.2" cy="130.7" r="4.6" fill="none" stroke="#f3f7fa" stroke-width="2"/><circle cx="573.2" cy="109.3" r="4.6" fill="none" stroke="#f3f7fa" stroke-width="2"/><circle cx="582.5" cy="90.1" r="4.6" fill="none" stroke="#f3f7fa" stroke-width="2"/><circle cx="599.2" cy="76.8" r="4.6" fill="none" stroke="#f3f7fa" stroke-width="2"/><text x="620.0" y="110.0" text-anchor="middle" class="mono star-label">TOTAL</text><text x="620.0" y="136.0" text-anchor="middle" class="mono star-value">548</text><text x="620.0" y="155.0" text-anchor="middle" class="mono star-detail">CONTRIBUTIONS</text></g><g filter="url(#glow)"><circle cx="390.0" cy="126.0" r="3.6" fill="none" stroke="#f3f7fa" stroke-width="2"/><circle cx="409.5" cy="131.2" r="3.6" fill="none" stroke="#f3f7fa" stroke-width="2"/><circle cx="423.8" cy="145.5" r="3.6" fill="none" stroke="#f3f7fa" stroke-width="2"/><circle cx="429.0" cy="165.0" r="3.6" fill="none" stroke="#f3f7fa" stroke-width="2"/><circle cx="423.8" cy="184.5" r="3.6" fill="none" stroke="#f3f7fa" stroke-width="2"/><circle cx="409.5" cy="198.8" r="3.6" fill="none" stroke="#f3f7fa" stroke-width="2"/><circle cx="390.0" cy="204.0" r="3.6" fill="none" stroke="#f3f7fa" stroke-width="2"/><circle cx="370.5" cy="198.8" r="3.6" fill="none" stroke="#f3f7fa" stroke-width="2"/><circle cx="356.2" cy="184.5" r="3.6" fill="none" stroke="#f3f7fa" stroke-width="2"/><circle cx="351.0" cy="165.0" r="3.6" fill="none" stroke="#f3f7fa" stroke-width="2"/><circle cx="356.2" cy="145.5" r="3.6" fill="none" stroke="#f3f7fa" stroke-width="2"/><circle cx="370.5" cy="131.2" r="3.6" fill="none" stroke="#f3f7fa" stroke-width="2"/><circle cx="390.0" cy="165.0" r="48.0" fill="none" stroke="#f3f7fa" opacity=".16"><animate attributeName="opacity" values=".08;.38;.08" dur="2.4s" repeatCount="indefinite"/><animate attributeName="r" values="44.0;52.0;44.0" dur="2.4s" repeatCount="indefinite"/></circle><text x="390.0" y="155.0" text-anchor="middle" class="mono star-label">CURRENT</text><text x="390.0" y="181.0" text-anchor="middle" class="mono star-value">6 DAYS</text></g><g><circle cx="850.0" cy="126.0" r="3.6" fill="none" stroke="#f3f7fa" stroke-width="2"/><circle cx="869.5" cy="131.2" r="3.6" fill="none" stroke="#f3f7fa" stroke-width="2"/><circle cx="883.8" cy="145.5" r="3.6" fill="none" stroke="#f3f7fa" stroke-width="2"/><circle cx="889.0" cy="165.0" r="3.6" fill="none" stroke="#f3f7fa" stroke-width="2"/><circle cx="883.8" cy="184.5" r="3.6" fill="none" stroke="#f3f7fa" stroke-width="2"/><circle cx="869.5" cy="198.8" r="3.6" fill="none" stroke="#f3f7fa" stroke-width="2"/><circle cx="850.0" cy="204.0" r="3.6" fill="none" stroke="#f3f7fa" stroke-width="2"/><circle cx="830.5" cy="198.8" r="3.6" fill="none" stroke="#f3f7fa" stroke-width="2"/><circle cx="816.2" cy="184.5" r="3.6" fill="none" stroke="#f3f7fa" stroke-width="2"/><circle cx="811.0" cy="165.0" r="3.6" fill="none" stroke="#f3f7fa" stroke-width="2"/><circle cx="816.2" cy="145.5" r="3.6" fill="none" stroke="#f3f7fa" stroke-width="2"/><circle cx="830.5" cy="131.2" r="3.6" fill="none" stroke="#f3f7fa" stroke-width="2"/><text x="850.0" y="155.0" text-anchor="middle" class="mono star-label">LONGEST</text><text x="850.0" y="181.0" text-anchor="middle" class="mono star-value">8 DAYS</text></g><g><circle cx="260.0" cy="247.0" r="3.6" fill="none" stroke="#f3f7fa" stroke-width="2"/><circle cx="274.0" cy="250.8" r="3.6" fill="none" stroke="#f3f7fa" stroke-width="2"/><circle cx="284.2" cy="261.0" r="3.6" fill="none" stroke="#f3f7fa" stroke-width="2"/><circle cx="288.0" cy="275.0" r="3.6" fill="none" stroke="#f3f7fa" stroke-width="2"/><circle cx="284.2" cy="289.0" r="3.6" fill="none" stroke="#f3f7fa" stroke-width="2"/><circle cx="274.0" cy="299.2" r="3.6" fill="none" stroke="#f3f7fa" stroke-width="2"/><circle cx="260.0" cy="303.0" r="3.6" fill="none" stroke="#f3f7fa" stroke-width="2"/><circle cx="246.0" cy="299.2" r="3.6" fill="none" stroke="#f3f7fa" stroke-width="2"/><circle cx="235.8" cy="289.0" r="3.6" fill="none" stroke="#f3f7fa" stroke-width="2"/><circle cx="232.0" cy="275.0" r="3.6" fill="none" stroke="#f3f7fa" stroke-width="2"/><circle cx="235.8" cy="261.0" r="3.6" fill="none" stroke="#f3f7fa" stroke-width="2"/><circle cx="246.0" cy="250.8" r="3.6" fill="none" stroke="#f3f7fa" stroke-width="2"/></g><g><circle cx="980.0" cy="233.0" r="4.6" fill="none" stroke="#f3f7fa" stroke-width="2"/><circle cx="1001.0" cy="238.6" r="4.6" fill="none" stroke="#f3f7fa" stroke-width="2"/><circle cx="1016.4" cy="254.0" r="4.6" fill="none" stroke="#f3f7fa" stroke-width="2"/><circle cx="1022.0" cy="275.0" r="4.6" fill="none" stroke="#f3f7fa" stroke-width="2"/><circle cx="1016.4" cy="296.0" r="4.6" fill="none" stroke="#f3f7fa" stroke-width="2"/><circle cx="1001.0" cy="311.4" r="4.6" fill="none" stroke="#f3f7fa" stroke-width="2"/><circle cx="980.0" cy="317.0" r="4.6" fill="none" stroke="#f3f7fa" stroke-width="2"/><circle cx="959.0" cy="311.4" r="4.6" fill="none" stroke="#f3f7fa" stroke-width="2"/><circle cx="943.6" cy="296.0" r="4.6" fill="none" stroke="#f3f7fa" stroke-width="2"/><circle cx="938.0" cy="275.0" r="4.6" fill="none" stroke="#f3f7fa" stroke-width="2"/><circle cx="943.6" cy="254.0" r="4.6" fill="none" stroke="#f3f7fa" stroke-width="2"/><circle cx="959.0" cy="238.6" r="4.6" fill="none" stroke="#f3f7fa" stroke-width="2"/><text x="980.0" y="265.0" text-anchor="middle" class="mono star-label">PEAK</text><text x="980.0" y="291.0" text-anchor="middle" class="mono star-value">86</text><text x="980.0" y="310.0" text-anchor="middle" class="mono star-detail">Sep 17, 2026</text></g><g><circle cx="330.0" cy="364.0" r="3.6" fill="none" stroke="#f3f7fa" stroke-width="2"/><circle cx="343.0" cy="367.5" r="3.6" fill="none" stroke="#f3f7fa" stroke-width="2"/><circle cx="352.5" cy="377.0" r="3.6" fill="none" stroke="#f3f7fa" stroke-width="2"/><circle cx="356.0" cy="390.0" r="3.6" fill="none" stroke="#f3f7fa" stroke-width="2"/><circle cx="352.5" cy="403.0" r="3.6" fill="none" stroke="#f3f7fa" stroke-width="2"/><circle cx="343.0" cy="412.5" r="3.6" fill="none" stroke="#f3f7fa" stroke-width="2"/><circle cx="330.0" cy="416.0" r="3.6" fill="none" stroke="#f3f7fa" stroke-width="2"/><circle cx="317.0" cy="412.5" r="3.6" fill="none" stroke="#f3f7fa" stroke-width="2"/><circle cx="307.5" cy="403.0" r="3.6" fill="none" stroke="#f3f7fa" stroke-width="2"/><circle cx="304.0" cy="390.0" r="3.6" fill="none" stroke="#f3f7fa" stroke-width="2"/><circle cx="307.5" cy="377.0" r="3.6" fill="none" stroke="#f3f7fa" stroke-width="2"/><circle cx="317.0" cy="367.5" r="3.6" fill="none" stroke="#f3f7fa" stroke-width="2"/></g><g><circle cx="910.0" cy="364.0" r="3.6" fill="none" stroke="#f3f7fa" stroke-width="2"/><circle cx="923.0" cy="367.5" r="3.6" fill="none" stroke="#f3f7fa" stroke-width="2"/><circle cx="932.5" cy="377.0" r="3.6" fill="none" stroke="#f3f7fa" stroke-width="2"/><circle cx="936.0" cy="390.0" r="3.6" fill="none" stroke="#f3f7fa" stroke-width="2"/><circle cx="932.5" cy="403.0" r="3.6" fill="none" stroke="#f3f7fa" stroke-width="2"/><circle cx="923.0" cy="412.5" r="3.6" fill="none" stroke="#f3f7fa" stroke-width="2"/><circle cx="910.0" cy="416.0" r="3.6" fill="none" stroke="#f3f7fa" stroke-width="2"/><circle cx="897.0" cy="412.5" r="3.6" fill="none" stroke="#f3f7fa" stroke-width="2"/><circle cx="887.5" cy="403.0" r="3.6" fill="none" stroke="#f3f7fa" stroke-width="2"/><circle cx="884.0" cy="390.0" r="3.6" fill="none" stroke="#f3f7fa" stroke-width="2"/><circle cx="887.5" cy="377.0" r="3.6" fill="none" stroke="#f3f7fa" stroke-width="2"/><circle cx="897.0" cy="367.5" r="3.6" fill="none" stroke="#f3f7fa" stroke-width="2"/></g></g>

  <!-- White Tree of Gondor silhouette -->
  <g class="tree"><path d="M610 575 C605 520 607 465 611 410 C614 355 613 300 608 248 C606 223 603 198 600 178"/><path d="M630 575 C635 520 633 465 629 410 C626 355 627 300 632 248 C634 223 637 198 640 178"/><path d="M620 330 C612 292 610 252 618 214 C621 196 621 177 620 158"/><path d="M616 300 C594 278 583 251 585 224 C586 202 596 183 610 170"/><path d="M624 300 C646 278 657 251 655 224 C654 202 644 183 630 170"/><path d="M613 330 C573 319 545 296 533 270 C523 248 529 226 546 221 C561 216 572 228 568 241 C565 253 551 258 542 250"/><path d="M611 360 C560 352 521 326 501 295 C486 272 490 250 507 243 C522 236 537 246 536 260 C535 271 524 279 513 275"/><path d="M611 392 C554 392 510 375 478 347 C456 327 450 305 463 294 C476 284 494 291 498 305 C502 318 492 329 479 329"/><path d="M610 425 C550 437 500 429 459 404 C431 387 418 365 430 352 C441 340 460 345 466 359 C471 372 463 384 449 385"/><path d="M610 458 C556 477 511 485 473 471 C451 463 443 448 452 438 C462 427 479 432 482 444 C485 456 474 464 463 459"/><path d="M627 330 C667 319 695 296 707 270 C717 248 711 226 694 221 C679 216 668 228 672 241 C675 253 689 258 698 250"/><path d="M629 360 C680 352 719 326 739 295 C754 272 750 250 733 243 C718 236 703 246 704 260 C705 271 716 279 727 275"/><path d="M629 392 C686 392 730 375 762 347 C784 327 790 305 777 294 C764 284 746 291 742 305 C738 318 748 329 761 329"/><path d="M630 425 C690 437 740 429 781 404 C809 387 822 365 810 352 C799 340 780 345 774 359 C769 372 777 384 791 385"/><path d="M630 458 C684 477 729 485 767 471 C789 463 797 448 788 438 C778 427 761 432 758 444 C755 456 766 464 777 459"/><path d="M536 260 C520 249 508 237 507 222 C506 210 513 201 523 202 C533 204 536 214 531 222"/><path d="M704 260 C720 249 732 237 733 222 C734 210 727 201 717 202 C707 204 704 214 709 222"/><path d="M501 295 C478 289 461 274 458 257 C456 245 464 236 475 237 C487 238 491 248 486 257"/><path d="M739 295 C762 289 779 274 782 257 C784 245 776 236 765 237 C753 238 749 248 754 257"/><path d="M478 347 C451 345 429 332 421 314 C415 301 421 289 432 288 C445 287 452 298 448 309"/><path d="M762 347 C789 345 811 332 819 314 C825 301 819 289 808 288 C795 287 788 298 792 309"/><path d="M612 570 C585 578 557 590 538 606 C522 620 524 635 538 638 C551 640 563 630 561 619 C559 608 546 604 536 611"/><path d="M628 570 C655 578 683 590 702 606 C718 620 716 635 702 638 C689 640 677 630 679 619 C681 608 694 604 704 611"/><path d="M606 575 C579 590 560 608 557 626 C555 638 566 645 577 640 C587 635 589 623 580 617 C572 611 563 616 560 624"/><path d="M634 575 C661 590 680 608 683 626 C685 638 674 645 663 640 C653 635 651 623 660 617 C668 611 677 616 680 624"/><path d="M602 582 C588 598 586 615 595 627 C603 638 616 634 616 622 C616 612 607 608 600 615"/><path d="M638 582 C652 598 654 615 645 627 C637 638 624 634 624 622 C624 612 633 608 640 615"/><path d="M588 600 C566 607 544 617 530 631 C522 639 526 648 536 648 C545 648 551 641 548 634"/><path d="M652 600 C674 607 696 617 710 631 C718 639 714 648 704 648 C695 648 689 641 692 634"/></g>

  <!-- subtle active-day contribution buds -->
  <g><path d="M487.6 320.4 L485.0 328.4" class="activity-twig"/><circle cx="485.0" cy="328.4" r="3.0" class="bud1"><title>2026-04-25: 1 contribution</title></circle><path d="M694.5 425.5 L694.4 435.5" class="activity-twig"/><circle cx="694.4" cy="435.5" r="3.8" class="bud2"><title>2026-08-14: 3 contributions</title></circle><path d="M746.6 423.5 L745.5 410.1" class="activity-twig"/><circle cx="745.5" cy="410.1" r="5.2" class="bud4"><title>2026-08-25: 19 contributions</title></circle><path d="M761.3 422.2 L762.4 433.6" class="activity-twig"/><circle cx="762.4" cy="433.6" r="4.5" class="bud3"><title>2026-08-28: 7 contributions</title></circle><path d="M766.2 421.7 L765.3 413.2" class="activity-twig"/><circle cx="765.3" cy="413.2" r="3.0" class="bud1"><title>2026-08-29: 1 contribution</title></circle><path d="M639.1 385.4 L639.0 395.4" class="activity-twig"/><circle cx="639.0" cy="395.4" r="3.8" class="bud2"><title>2026-09-01: 3 contributions</title></circle><path d="M644.1 385.4 L644.2 376.0" class="activity-twig"/><circle cx="644.2" cy="376.0" r="3.0" class="bud1"><title>2026-09-02: 2 contributions</title></circle><path d="M649.3 385.4 L649.3 395.9" class="activity-twig"/><circle cx="649.3" cy="395.9" r="3.8" class="bud2"><title>2026-09-03: 4 contributions</title></circle><path d="M654.4 385.4 L654.3 376.0" class="activity-twig"/><circle cx="654.3" cy="376.0" r="3.0" class="bud1"><title>2026-09-04: 2 contributions</title></circle><path d="M659.5 385.3 L659.7 398.2" class="activity-twig"/><circle cx="659.7" cy="398.2" r="5.2" class="bud4"><title>2026-09-05: 14 contributions</title></circle><path d="M664.6 385.3 L664.4 374.0" class="activity-twig"/><circle cx="664.4" cy="374.0" r="4.5" class="bud3"><title>2026-09-06: 6 contributions</title></circle><path d="M695.5 384.1 L694.7 369.1" class="activity-twig"/><circle cx="694.7" cy="369.1" r="6.0" class="bud5"><title>2026-09-12: 79 contributions</title></circle><path d="M700.7 383.8 L701.6 398.8" class="activity-twig"/><circle cx="701.6" cy="398.8" r="6.0" class="bud5"><title>2026-09-13: 65 contributions</title></circle><path d="M705.9 383.5 L705.2 373.0" class="activity-twig"/><circle cx="705.2" cy="373.0" r="3.8" class="bud2"><title>2026-09-14: 4 contributions</title></circle><path d="M711.1 383.1 L712.1 397.4" class="activity-twig"/><circle cx="712.1" cy="397.4" r="6.0" class="bud5"><title>2026-09-15: 28 contributions</title></circle><path d="M716.2 382.8 L715.3 370.1" class="activity-twig"/><circle cx="715.3" cy="370.1" r="5.2" class="bud4"><title>2026-09-16: 13 contributions</title></circle><path d="M721.5 382.3 L722.7 397.3" class="activity-twig"/><circle cx="722.7" cy="397.3" r="6.0" class="bud5"><title>2026-09-17: 86 contributions</title></circle><path d="M726.7 381.9 L725.4 367.7" class="activity-twig"/><circle cx="725.4" cy="367.7" r="6.0" class="bud5"><title>2026-09-18: 27 contributions</title></circle><path d="M731.9 381.4 L732.9 392.2" class="activity-twig"/><circle cx="732.9" cy="392.2" r="3.8" class="bud2"><title>2026-09-19: 5 contributions</title></circle><path d="M742.3 380.4 L743.2 388.8" class="activity-twig"/><circle cx="743.2" cy="388.8" r="3.0" class="bud1"><title>2026-09-21: 1 contribution</title></circle><path d="M747.6 379.8 L746.5 369.9" class="activity-twig"/><circle cx="746.5" cy="369.9" r="3.8" class="bud2"><title>2026-09-22: 3 contributions</title></circle><path d="M752.8 379.2 L754.5 393.4" class="activity-twig"/><circle cx="754.5" cy="393.4" r="6.0" class="bud5"><title>2026-09-23: 28 contributions</title></circle><path d="M758.1 378.6 L756.3 363.7" class="activity-twig"/><circle cx="756.3" cy="363.7" r="6.0" class="bud5"><title>2026-09-24: 59 contributions</title></circle><path d="M763.3 377.9 L765.1 391.8" class="activity-twig"/><circle cx="765.1" cy="391.8" r="5.2" class="bud4"><title>2026-09-25: 24 contributions</title></circle><path d="M768.6 377.3 L766.6 362.4" class="activity-twig"/><circle cx="766.6" cy="362.4" r="6.0" class="bud5"><title>2026-09-26: 60 contributions</title></circle><path d="M643.8 346.4 L645.2 354.8" class="activity-twig"/><circle cx="645.2" cy="354.8" r="3.0" class="bud1"><title>2025-10-02: 1 contribution</title></circle><path d="M687.6 337.9 L685.6 328.8" class="activity-twig"/><circle cx="685.6" cy="328.8" r="3.0" class="bud1"><title>2025-10-11: 2 contributions</title></circle><path d="M660.9 297.5 L657.2 289.9" class="activity-twig"/><circle cx="657.2" cy="289.9" r="3.0" class="bud1"><title>2025-11-08: 1 contribution</title></circle></g>

  <!-- latest-contribution orb -->
  <circle r="6" fill="#ffffff" filter="url(#glow)">
    <animateMotion path="M620 575 C620 520 620 455 620 385.0 Q715.0 388.0 768.6 377.3 L766.6 362.4" dur="5.2s" repeatCount="indefinite"/>
    <animate attributeName="opacity" values="0;.95;.95;0" keyTimes="0;.08;.9;1" dur="5.2s" repeatCount="indefinite"/>
  </circle>
  <circle cx="766.6" cy="362.4" r="10" fill="none" stroke="#f3f7fa" opacity=".25">
    <animate attributeName="r" values="7;13;7" dur="2.2s" repeatCount="indefinite"/>
    <animate attributeName="opacity" values=".12;.46;.12" dur="2.2s" repeatCount="indefinite"/>
  </circle>

  <!-- WhiteTree roots still encode the ecosystem identity without dashboard boxes -->
  <text x="500" y="672" text-anchor="middle" class="mono root-label">MIND</text>
  <text x="740" y="672" text-anchor="middle" class="mono root-label">WORK</text>
</svg>